<svg id="female_front" class="female front" xmlns="http://www.w3.org/2000/svg" x="0px" y="0px" viewBox="1 -8 270 400">
	<path id="female_front_leg-2" class="legs" d="M175.9,194.5l-7.1-22.4c-0.3-1-1-1.8-1.9-2.4l0,0c-1.4-0.8-3.1-0.8-4.4,0.1l-11.5,7.3
	c-0.6,0.4-1.1,1-1.5,1.6l-8.9,16.5c-0.3,0.6-0.5,1.3-0.5,2V211c0,0.3,0,0.7,0.1,1l2.3,10.1c0.1,0.4,0.2,0.8,0.5,1.2l25.9,44.9
	c0.5,0.9,0.7,2.1,0.4,3.1l-2.4,9.8c-0.1,0.6-0.2,1.1-0.1,1.7l3.4,21c0.1,0.8,0.5,1.6,1,2.2l7.4,8.1c0.6,0.6,0.9,1.4,1.1,2.2
	l4.1,28.6c0,0.3,0.1,0.6,0,0.8l-0.8,14c-0.1,1.3,0.4,2.6,1.4,3.4l1.7,1.6c0.9,0.8,2.1,1.2,3.3,1.1h0.4c1.7-0.2,3.3,0.6,4.2,2.1
	l5.8,10c0.6,1.1,1.7,1.9,3,2.1l13.2,2.1c1,0.2,2.1,0,2.9-0.6l3.2-2c2-1.2,2.6-3.8,1.4-5.8c-0.3-0.5-0.7-0.9-1.1-1.2l-10.3-7.6
	c-0.5-0.4-1-0.9-1.3-1.5l-8.7-17c-0.2-0.5-0.6-0.9-1-1.3l-3.1-2.7c-0.8-0.7-1.3-1.7-1.4-2.7l-8.1-71.3c0-0.2,0-0.3-0.1-0.5
	l-6.2-26.6c-0.1-0.2-0.1-0.5-0.1-0.7l-1.3-25.6c0-0.3-0.1-0.6-0.1-0.9l-5.1-19.5C176,194.6,175.9,194.6,175.9,194.5z"/>
	<path id="female_front_leg-1" class="legs" d="M94.4,194.7l-5.1,19.5c-0.1,0.3-0.1,0.6-0.1,0.9l-1.3,25.6c0,0.2,0,0.5-0.1,0.7
	l-6.1,26.7c0,0.2-0.1,0.3-0.1,0.5l-8.1,71.3c-0.1,1-0.6,2-1.4,2.7l-3.1,2.7c-0.4,0.4-0.7,0.8-1,1.3l-8.7,17
	c-0.3,0.6-0.7,1.1-1.3,1.5l-10.3,7.6c-1.9,1.4-2.3,4-0.9,5.9c0.3,0.4,0.7,0.8,1.2,1.1l3.2,2c0.9,0.5,1.9,0.7,2.9,0.6l13.2-2.1
	c1.3-0.2,2.4-1,3-2.1l5.8-10c0.8-1.5,2.5-2.3,4.2-2.1h0.4c1.2,0.1,2.4-0.3,3.3-1.1l1.7-1.6c1-0.8,1.5-2.1,1.4-3.4l-0.8-14v-0.8
	l4.1-28.6c0.1-0.8,0.5-1.6,1.1-2.2l7.4-8.1c0.5-0.6,0.9-1.4,1-2.2l3.4-21c0.1-0.6,0.1-1.2-0.1-1.7l-2.4-9.8c-0.3-1-0.1-2.2,0.4-3.1
	l25.9-44.9c0.2-0.4,0.4-0.8,0.5-1.2l2.3-10.1c0.1-0.3,0.1-0.7,0.1-1v-13.8c0-0.7-0.2-1.4-0.5-2l-8.9-16.5c-0.3-0.7-0.9-1.2-1.5-1.6
	l-11.5-7.3c-1.3-0.9-3-0.9-4.4-0.1l0,0c-0.9,0.5-1.6,1.4-1.9,2.4l-7.1,22.4C94.5,194.6,94.4,194.6,94.4,194.7z"/>
	<path id="female_front_belly" class="belly" d="M156.4,126l-20.2-12.5c-0.9-0.6-2.1-0.6-3,0L113,126c-0.7,0.4-1.1,1-1.3,1.8l-1.2,5.1
	c-0.2,0.9,0,1.9,0.7,2.5c2,2.2,6.7,7.1,9,8.7c2.6,1.7,11.6,3.7,13.9,4.1c0.4,0.1,0.7,0.1,1.1,0c2.3-0.5,11.3-2.4,13.9-4.1
	c2.3-1.5,6.9-6.4,9-8.7c0.6-0.7,0.9-1.6,0.7-2.5l-1.2-5.1C157.5,127.1,157,126.4,156.4,126z"/>
	<path id="female_front_arm-2" class="arms" d="M184,84.2c-1.6-0.4-7.6-1.6-8.4-0.5s-0.5,8.7-0.3,10.5c0,0.3,0.1,0.5,0.3,0.7
	l14.7,17.7c0.1,0.1,0.1,0.2,0.2,0.3l4.4,9.2c0.1,0.1,0.2,0.3,0.3,0.4l8.2,7.3c0.1,0.1,0.1,0.1,0.2,0.1l23.5,14.9
	c0.1,0,0.1,0.1,0.2,0.1l5.6,5.1l0.1,0.1l9.6,10.6c0.2,0.2,0.3,0.4,0.3,0.7l1.5,13.6c0,0.5,0.4,0.8,0.9,0.8h0.3
	c0.5,0,0.9-0.4,0.9-0.9l0.1-8.8c0-0.5,0.3-0.9,0.7-1.1l0.2-0.1c0.6-0.3,1.4,0,1.7,0.6l3.7,9c0.3,0.6,1,0.9,1.6,0.7l0.7-0.3
	c0.6-0.2,0.9-0.9,0.7-1.5l-3.9-10.7c-0.1-0.4,0-0.8,0.3-1l0,0c0.3-0.3,0.8-0.2,1.1,0.1l10,9.8c0.4,0.3,0.9,0.4,1.3,0.2l0.7-0.3
	c0.6-0.3,0.9-1,0.7-1.6c-0.1-0.1-0.1-0.3-0.3-0.4l-9.8-10.4c-0.3-0.3-0.3-0.8-0.1-1.1l0.3-0.4c0.3-0.4,0.8-0.5,1.1-0.2
	c0,0,0,0,0.1,0l11,6.6c0.6,0.3,1.3,0.2,1.6-0.4c0,0,0-0.1,0.1-0.1l0,0c0.3-0.5,0.2-1.2-0.3-1.5l-14.3-12.5l-0.3-0.3l-3.9-6.9
	c-0.3-0.5-0.2-1.1,0.2-1.5c0.7-0.8,1.7-1.4,2.8-1.5c0.8-0.1,1.1,1,2,0.9c3.1-0.3,6.3-0.7,7-1.3c1-0.7,2.1-3,2.7-4.5
	c0.3-0.6,0-1.2-0.5-1.5c-0.1,0-0.2-0.1-0.3-0.1l-0.8-0.2c-0.2,0-0.4-0.1-0.6,0l-13.4,2.9l-10,1.7h-0.3l-4-0.4
	c-0.3,0-0.6-0.2-0.8-0.4l-26.6-30.8c-0.1-0.2-0.3-0.3-0.5-0.3l-8.6-3.4c-0.2-0.1-0.3-0.2-0.5-0.3l-14.4-17
	C184.5,84.4,184.3,84.3,184,84.2z"/>
	<path id="female_front_arm-1" class="arms" d="M85.4,84.6l-14.3,16.9c-0.1,0.2-0.3,0.3-0.5,0.3l-8.6,3.4c-0.2,0.1-0.3,0.2-0.5,0.3
	l-26.6,30.8c-0.2,0.2-0.5,0.4-0.8,0.4l-4,0.4h-0.3l-10-1.7l-13.4-2.9H5.8L5,132.7c-0.6,0.2-1,0.8-0.8,1.5c0,0,0,0.1,0,0.1
	c0.6,1.5,1.7,3.7,2.7,4.5c0.8,0.6,4,1,7,1.3c0.9,0.1,1.2-1,2-0.9c1.1,0.2,2.1,0.7,2.8,1.5c0.4,0.4,0.5,1,0.2,1.5l-3.9,6.9l-0.3,0.3
	L0.4,162c-0.4,0.4-0.5,1-0.3,1.5l0,0c0.3,0.6,1.1,0.8,1.7,0.5l11-6.6c0.4-0.2,0.9-0.1,1.2,0.2l0.3,0.4c0.3,0.3,0.2,0.8-0.1,1.1
	l-9.8,10.4c-0.5,0.5-0.5,1.3,0.1,1.8c0.1,0.1,0.2,0.2,0.3,0.2l0.7,0.3c0.4,0.2,0.9,0.1,1.3-0.2l10-9.8c0.3-0.3,0.8-0.3,1.1-0.1l0,0
	c0.3,0.2,0.4,0.6,0.3,1l-3.9,10.7c-0.2,0.6,0.1,1.3,0.7,1.5l0.7,0.3c0.6,0.2,1.3-0.1,1.6-0.7l3.7-9c0.3-0.6,1-0.9,1.6-0.7
	c0,0,0.1,0,0.1,0.1l0.2,0.1c0.4,0.2,0.7,0.6,0.7,1.1l0.1,8.8c0,0.5,0.4,0.9,0.9,0.9h0.3c0.5,0,0.9-0.3,0.9-0.8l1.5-13.6
	c0-0.3,0.1-0.5,0.3-0.7l9.6-10.6l0.1-0.1l5.6-5.1c0.1,0,0.1-0.1,0.2-0.1l23.6-14.9c0.1,0,0.1-0.1,0.2-0.1l8.2-7.3
	c0.1-0.1,0.2-0.2,0.3-0.4l4.4-9.2c0-0.1,0.1-0.2,0.2-0.3l14.7-17.7c0.2-0.2,0.3-0.4,0.3-0.7c0.1-1.8,0.5-9.3-0.3-10.5
	s-6.8,0.1-8.4,0.5C85.8,84.3,85.5,84.4,85.4,84.6z"/>
	<g id="female_front_shoulders" class="shoulders">
		<path class="shoulders" d="M118.3,59.4l-4.2-0.8c-0.4-0.1-0.8-0.1-1.2,0l-5,0.6c-1,0.1-1.9,0.6-2.5,1.3l-4.9,5.7
		c-0.2,0.2-0.3,0.4-0.4,0.7l-3.3,5.9c-0.9,1.6-0.5,3.6,0.9,4.8l1.9,1.6c1.6,1.4,4.1,1.2,5.5-0.4c0,0,0.1-0.1,0.1-0.1l4.7-5.9
		c0.5-0.6,1.1-1,1.8-1.3l5.9-2c0.9-0.3,1.7-1,2.2-1.8l1.4-2.5c1-1.9,0.3-4.2-1.5-5.3C119.1,59.6,118.7,59.5,118.3,59.4z"/>
		<path class="shoulders" d="M173.1,72.7l-3.3-5.9c-0.1-0.2-0.3-0.4-0.4-0.7l-4.9-5.7c-0.6-0.7-1.5-1.2-2.5-1.3l-5-0.6c-0.4,0-0.8,0-1.2,0
		l-4.2,0.8c-2.1,0.4-3.5,2.5-3.1,4.6c0.1,0.4,0.2,0.8,0.4,1.1l1.4,2.5c0.5,0.9,1.2,1.5,2.2,1.8l5.9,2c0.7,0.2,1.3,0.7,1.8,1.3
		l4.7,5.9c1.3,1.7,3.8,2,5.5,0.6c0,0,0.1-0.1,0.1-0.1l1.9-1.6C173.7,76.3,174.1,74.3,173.1,72.7z"/>
	</g>
	<path id="female_front_head" class="head" d="M147.6,4.5C144.3-0.4,134.7,0,134.7,0s-9.6-0.4-12.9,4.5s-6.2,13.4-5.9,17.8
	s3.5,14.1,3.6,15.5s7.8,13.3,10.6,13.9c1.5,0.4,3,0.6,4.5,0.7l0,0c1.5-0.1,3-0.4,4.5-0.7c2.9-0.6,10.5-12.5,10.6-13.9
	s3.3-11.1,3.6-15.5S150.8,9.4,147.6,4.5z"/>
</svg>
