<svg id="female_back" class="female back hidden" xmlns="http://www.w3.org/2000/svg" x="0px" y="0px" viewBox="1 -8 270 400">
	<path id="female_back_leg-2" class="legs" d="M94.2,194.8l-5,19.5c-0.1,0.3-0.1,0.6-0.1,0.9l-1.3,25.6c0,0.2,0,0.5-0.1,0.7l-6.2,26.6
	c0,0.2-0.1,0.3-0.1,0.5l-8.1,71.3c-0.1,1-0.6,2-1.4,2.7l-3.1,2.7c-0.4,0.4-0.7,0.8-1,1.3l-8.7,17c-0.3,0.6-0.7,1.1-1.3,1.5
	l-10.3,7.6c-1.9,1.4-2.3,4-0.9,5.9c0.3,0.4,0.7,0.8,1.2,1.1l3.2,2c0.9,0.5,1.9,0.7,2.9,0.6l13.3-2.2c1.3-0.2,2.4-1,3-2.1l5.8-10
	c0.8-1.5,2.5-2.3,4.2-2.1h0.4c1.2,0.1,2.4-0.3,3.3-1.1l1.7-1.6c1-0.8,1.5-2.1,1.4-3.4l-0.8-14V345l4.1-28.6c0.1-0.8,0.5-1.6,1.1-2.2
	l7.4-8.1c0.5-0.6,0.9-1.4,1-2.2l3.4-21c0.1-0.6,0.1-1.2-0.1-1.7l-2.4-9.8c-0.3-1-0.1-2.2,0.4-3.1l25.9-44.9c0.2-0.4,0.4-0.8,0.5-1.2
	l2.3-10.1c0.1-0.3,0.1-0.7,0.1-1l0.9-10.4c0-0.7-2.8-1.8-2.8-1.8l-2.1,1.9l-12,2.9l-13.3-7.4l-3.5-5.4c-0.9,0.5-1.6-0.3-1.9,0.7
	l-0.9,3C94.2,194.7,94.2,194.7,94.2,194.8z"/>
	<path id="female_back_leg-1" class="legs" d="M175.4,194.5l-0.9-3c-0.3-1-1-0.2-1.9-0.7l-3.5,5.4l-13.3,7.4l-12-2.9l-2.1-1.9
	c0,0-2.8,1.1-2.8,1.8l0.9,10.4c0,0.3,0,0.7,0.1,1l2.3,10.1c0.1,0.4,0.2,0.8,0.5,1.2l25.9,44.9c0.5,0.9,0.7,2.1,0.4,3.1l-2.4,9.8
	c-0.1,0.6-0.2,1.1-0.1,1.7l3.4,21c0.1,0.8,0.5,1.6,1,2.2l7.4,8.1c0.6,0.6,0.9,1.4,1.1,2.2l4.1,28.6c0,0.3,0.1,0.6,0,0.8l-0.8,14
	c-0.1,1.3,0.4,2.6,1.4,3.4l1.7,1.6c0.9,0.8,2.1,1.2,3.3,1.1h0.4c1.7-0.2,3.3,0.6,4.2,2.1l5.8,10c0.6,1.1,1.7,1.9,3,2.1l13.2,2.1
	c1,0.2,2.1,0,2.9-0.6l3.2-2c2-1.2,2.6-3.8,1.4-5.8c-0.3-0.5-0.7-0.9-1.1-1.2l-10.3-7.6c-0.5-0.4-1-0.9-1.3-1.5l-8.7-17
	c-0.2-0.5-0.6-0.9-1-1.3l-3.1-2.7c-0.8-0.7-1.3-1.7-1.4-2.7l-8.1-71.3c0-0.2,0-0.3-0.1-0.5l-6.2-26.6c-0.1-0.2-0.1-0.5-0.1-0.7
	l-1.3-25.6c0-0.3-0.1-0.6-0.1-0.9l-5.1-19.5C175.4,194.7,175.4,194.6,175.4,194.5z"/>
	<path id="female_back_down" class="hips" d="M169.9,167.8l-2.9-14.3v-7.6c0-0.6-0.3-1.1-0.8-1.4l-2.5-1.3c-0.5-0.2-1-0.2-1.5,0
	l-9.4,5.3l-8.3,4.3c-0.6,0.3-1.3,0.2-1.8-0.2l-7.5-7l0,0l-7.5,7c-0.5,0.4-1.2,0.5-1.8,0.2l-8.3-4.3l-9.4-5.3c-0.5-0.3-1-0.3-1.5,0
	l-2.5,1.3c-0.5,0.3-0.8,0.8-0.8,1.4v7.6l-2.9,14.3l-2.7,12.8c-0.1,0.3,0,0.6,0.1,0.9l3.3,8.4c0.1,0.3,0.3,0.6,0.6,0.7l6.6,4.3
	c0.2,0.1,0.4,0.2,0.6,0.2l11.6,1.7h0.6l7.6-1.6c0.2,0,0.4-0.2,0.6-0.3l4-3.2c0.2-0.1,0.3-0.3,0.4-0.5l0,0c0.4-0.8,1.4-1.1,2.2-0.6
	c0.3,0.1,0.5,0.4,0.6,0.6l0,0c0.1,0.2,0.2,0.4,0.4,0.5l4,3.2l0.6,0.3l7.6,1.6h0.6l11.6-1.7c0.2,0,0.4-0.1,0.6-0.2l6.6-4.3
	c0.3-0.2,0.5-0.4,0.6-0.7l3.3-8.4c0.1-0.3,0.1-0.6,0.1-0.9L169.9,167.8z"/>
	<g id="female_back_back" class="back">
		<path class="back" d="M108.7,78.8l-4.4,4c-1.9,1.7-2.7,4.3-2.2,6.8l2.9,14c0.2,0.9,0.5,1.7,1,2.5l5.6,8.5c0.8,1.1,1.2,2.5,1.2,3.9
		l0.3,17.8c0.1,2.5,1.3,4.7,3.4,6l5.2,3.2c2.9,1.8,6.7,1.3,9-1.2l2.5-2.6c1.3-1.3,2-3.1,2-4.9v-21.8c0-1.1-0.2-2.1-0.7-3.1L120.1,81
		c-0.9-2-2.8-3.5-4.9-4l0,0C112.8,76.5,110.4,77.2,108.7,78.8z"/>
		<path class="back" d="M155.2,77.1L155.2,77.1c-2.2,0.5-4,2-4.9,4l-14.4,30.7c-0.4,1-0.7,2-0.7,3.1v21.9c0,1.8,0.7,3.6,2,4.9l2.5,2.6
		c2.3,2.5,6.1,3,9.1,1.2l5.2-3.2c2.1-1.3,3.4-3.5,3.4-6l0.3-17.8c0-1.4,0.4-2.7,1.2-3.9l5.6-8.5c0.5-0.8,0.8-1.6,1-2.5l2.9-14
		c0.5-2.5-0.3-5.1-2.2-6.8l-4.4-4C159.9,77.3,157.5,76.6,155.2,77.1z"/>
	</g>
	<path id="female_back_arm-2" class="arms" d="M183,85.4c-1.6-0.4-7.6-1.6-8.4-0.5s-0.5,8.7-0.3,10.5c0,0.3,0.1,0.5,0.3,0.7l14.7,17.7
	c0.1,0.1,0.1,0.2,0.2,0.3l4.4,9.2c0.1,0.1,0.2,0.3,0.3,0.4l8.2,7.3c0.1,0.1,0.1,0.1,0.2,0.1l23.5,14.9c0.1,0,0.1,0.1,0.2,0.1
	l5.6,5.1l0.1,0.1l9.6,10.6c0.2,0.2,0.3,0.4,0.3,0.7l1.5,13.6c0,0.5,0.4,0.8,0.9,0.8h0.3c0.5,0,0.9-0.4,0.9-0.9l0.1-8.8
	c0-0.5,0.3-0.9,0.7-1.1l0.2-0.1c0.6-0.3,1.4,0,1.7,0.6l3.7,9c0.3,0.6,1,0.9,1.6,0.7l0.7-0.3c0.6-0.2,0.9-0.9,0.7-1.5l-3.9-10.7
	c-0.1-0.4,0-0.8,0.3-1l0,0c0.3-0.3,0.8-0.2,1.1,0.1l10,9.8c0.4,0.3,0.9,0.4,1.3,0.2l0.7-0.3c0.6-0.3,0.9-1,0.7-1.6
	c-0.1-0.1-0.1-0.3-0.3-0.4l-9.8-10.4c-0.3-0.3-0.3-0.8-0.1-1.1l0.3-0.4c0.3-0.4,0.8-0.5,1.1-0.2c0,0,0,0,0.1,0l11,6.6
	c0.6,0.3,1.3,0.2,1.6-0.4c0,0,0-0.1,0.1-0.1l0,0c0.3-0.5,0.2-1.2-0.3-1.5l-14.6-12.5l-0.3-0.3l-3.9-6.9c-0.3-0.5-0.2-1.1,0.2-1.5
	c0.7-0.8,1.7-1.4,2.8-1.5c0.8-0.1,1.1,1,2,0.9c3.1-0.3,6.3-0.7,7-1.3c1-0.7,2.1-3,2.7-4.5c0.3-0.6,0-1.2-0.5-1.5
	c-0.1,0-0.2-0.1-0.3-0.1l-0.8-0.2c-0.2,0-0.4-0.1-0.6,0l-13.4,2.9l-10,1.7h-0.3l-4-0.4c-0.3,0-0.6-0.2-0.8-0.4l-26.6-30.8
	c-0.1-0.2-0.3-0.3-0.5-0.3l-8.6-3.4c-0.2-0.1-0.3-0.2-0.5-0.3l-14.3-16.9C183.5,85.6,183.2,85.5,183,85.4z"/>
	<path id="female_back_arm-1" class="arms" d="M85.3,85.8L71,102.7c-0.1,0.2-0.3,0.3-0.5,0.3l-8.6,3.4c-0.2,0.1-0.3,0.2-0.5,0.3
	l-26.6,30.8c-0.2,0.2-0.5,0.4-0.8,0.4l-4,0.4h-0.3l-10-1.7l-13.4-2.9H5.7L5,134.1c-0.6,0.2-1,0.8-0.8,1.5c0,0,0,0.1,0,0.1
	c0.6,1.5,1.7,3.7,2.7,4.5c0.8,0.6,4,1,7,1.3c0.9,0.1,1.2-1,2-0.9c1.1,0.2,2.1,0.7,2.8,1.5c0.4,0.4,0.5,1,0.2,1.5l-3.9,6.9l-0.3,0.3
	L0.4,163.3c-0.4,0.4-0.5,1-0.3,1.5l0,0c0.3,0.6,1.1,0.8,1.7,0.5l11-6.6c0.4-0.2,0.9-0.1,1.2,0.2l0.3,0.4c0.3,0.3,0.2,0.8-0.1,1.1
	l-9.8,10.4c-0.5,0.5-0.5,1.3,0.1,1.8c0.1,0.1,0.2,0.2,0.3,0.2l0.7,0.3c0.4,0.2,0.9,0.1,1.3-0.2l10-9.8c0.3-0.3,0.8-0.3,1.1-0.1l0,0
	c0.3,0.2,0.4,0.6,0.3,1l-3.9,10.7c-0.2,0.6,0.1,1.3,0.7,1.5l0.7,0.3c0.6,0.2,1.3-0.1,1.6-0.7l3.7-9c0.3-0.6,1-0.9,1.6-0.7
	c0,0,0.1,0,0.1,0.1l0.2,0.1c0.4,0.2,0.7,0.6,0.7,1.1l0.1,8.8c0,0.5,0.4,0.9,0.9,0.9h0.3c0.5,0,0.9-0.3,0.9-0.8l1.5-13.6
	c0-0.3,0.1-0.5,0.3-0.7l9.6-10.6l0.1-0.1l5.6-5.1c0.1,0,0.1-0.1,0.2-0.1l23.5-15c0.1,0,0.1-0.1,0.2-0.1l8.2-7.3
	c0.1-0.1,0.2-0.2,0.3-0.4l4.4-9.2c0-0.1,0.1-0.2,0.2-0.3l14.7-17.7c0.2-0.2,0.3-0.4,0.3-0.7c0.1-1.8,0.5-9.3-0.3-10.5
	s-6.8,0.1-8.4,0.5C85.9,85.4,85.5,85.6,85.3,85.8z"/>
	<g id="female_back_shoulders" class="shoulders">
		<path class="shoulders" d="M121.1,58.5c-0.2-1-1.1-1.6-2.1-1.4c0,0-0.1,0-0.1,0L103,61.7c-0.4,0.1-0.8,0.4-1,0.8l-8.2,13.9
		c-0.5,0.8-0.2,1.9,0.6,2.4c0.1,0.1,0.2,0.1,0.3,0.2l4.8,1.7c0.7,0.2,1.5,0,1.9-0.5l5.7-6.7c0.1-0.1,0.2-0.3,0.3-0.5l0.3-0.7
		c0.3-0.8,1.1-1.2,1.9-1.1l12,1.8c1,0.1,1.9-0.5,2-1.5c0-0.2,0-0.4,0-0.6L121.1,58.5z"/>
		<path class="shoulders" d="M176.1,76.4L168,62.5c-0.2-0.4-0.6-0.7-1-0.8l-15.8-4.6c-0.9-0.3-1.9,0.3-2.2,1.2c0,0,0,0.1,0,0.1l-2.6,12.4
		c-0.2,1,0.4,1.9,1.4,2.1c0.2,0,0.4,0,0.6,0l12-1.8c0.8-0.1,1.6,0.3,1.9,1.1l0.3,0.7c0.1,0.2,0.2,0.4,0.3,0.5l5.7,6.7
		c0.5,0.6,1.2,0.8,1.9,0.5l4.8-1.7c0.9-0.3,1.4-1.3,1.1-2.2C176.3,76.6,176.2,76.5,176.1,76.4z"/>
	</g>
	<path id="female_back_neck" class="neck" d="M144.6,57.9l-1.4-0.5c-0.6-0.2-0.9-0.7-0.9-1.3V50c0-0.4-0.2-0.7-0.4-1l-2.1-2
	c-0.2-0.2-0.4-0.3-0.6-0.3l-3.7-0.8c-0.2-0.1-0.4-0.1-0.6,0l-3.7,0.8c-0.2,0.1-0.5,0.2-0.6,0.3l-2.1,2c-0.3,0.3-0.4,0.6-0.4,1v6.1
	c0,0.6-0.4,1.1-0.9,1.3l-1.4,0.5c-0.7,0.2-1,0.9-0.9,1.6l3.4,15.8c0.2,0.8-0.3,1.5-1.1,1.6c-0.1,0-0.2,0-0.3,0h-0.3
	c-0.8,0-1.4,0.6-1.4,1.4c0,0.2,0,0.3,0.1,0.5l8.6,22.1c0.3,0.7,1.1,1.1,1.8,0.8c0.4-0.1,0.7-0.4,0.8-0.8l8.6-22.1
	c0.3-0.7-0.1-1.5-0.8-1.8c-0.2-0.1-0.3-0.1-0.5-0.1h-0.3c-0.8,0-1.4-0.6-1.4-1.4c0-0.1,0-0.2,0-0.3l3.4-15.8
	C145.6,58.8,145.3,58.1,144.6,57.9z"/>
	<path id="female_back_head" class="head" d="M135.3,40.4c-1.6,0-3.3,0.4-4.7,1.2c-2.4,1.4-6.1,3.3-7.5,3.3c-2.9-0.1-3.3-5.5-3.4-6.9
	s-1.5-11.2-1.9-15.6c-0.4-5.7,1.1-11.3,4.1-16.1c2.7-4,9-6.3,13.5-6.3c2.1,0,7,1.6,10.2,5.1c3.9,4.4,6.3,12.2,5.9,16.5
	s-2.3,16.8-2.4,18.2s-1.4,5.2-4.3,4.6c-1-0.2-3.6-1.8-5.9-3.2c-1-0.6-2.1-0.9-3.3-1L135.3,40.4z"/>
</svg>
