<svg id="male_back" class="male back hidden" xmlns="http://www.w3.org/2000/svg" x="0px" y="0px" viewBox="1 -8 270 400">
	<path id="male_back_leg-2" class="legs" d="M167.8,191l-4,3.7l-0.2,0.2l-8.4,6.3c-0.6,0.4-1.3,0.5-2,0.3l-11.1-3.5
	c-0.4-0.1-0.8-0.1-1.2,0l0,0c-1.1,0.2-1.8,1.3-1.6,2.4l4,25.7c0,0.3,0.1,0.6,0.3,0.8l25.5,42.6c0.3,0.5,0.4,1.1,0.2,1.6l-2.7,11
	c-0.1,0.3-0.1,0.6,0,0.9l3.6,22c0.1,0.4,0.3,0.8,0.5,1.1l8.2,9.1c0.3,0.3,0.5,0.7,0.5,1.2l4.2,29.4v0.4l-0.9,15.2
	c0,0.6,0.2,1.3,0.7,1.7l3.2,2.9c0.5,0.4,1.1,0.6,1.7,0.5l2.7-0.3c0.9-0.1,1.7,0.3,2.1,1.1l6.9,12.1c0.3,0.6,0.9,1,1.6,1.1l14.9,2.3
	c0.5,0.1,1.1,0,1.5-0.3l6.4-4c1-0.6,1.4-2,0.7-3c-0.1-0.2-0.3-0.4-0.5-0.6l-13.1-9.7c-0.3-0.2-0.5-0.5-0.6-0.8l-9.1-17.7
	c-0.1-0.2-0.3-0.4-0.5-0.6l-4-3.5c-0.4-0.3-0.7-0.9-0.7-1.4l-8.2-72.2v-0.2l-15-71.5c0-0.1-0.1-0.2-0.1-0.3l-2-5.2
	c-0.4-1.1-1.6-1.7-2.7-1.3C168.3,190.6,168,190.8,167.8,191z"/>
	<path id="male_back_leg-1" class="legs" d="M99.2,191.8l-2,5.2c0,0.1-0.1,0.2-0.1,0.3L82,268.8v0.2l-8.2,72.2c-0.1,0.5-0.3,1-0.7,1.4
	l-4,3.5c-0.2,0.2-0.4,0.4-0.5,0.6l-9.1,17.7c-0.2,0.3-0.4,0.6-0.6,0.8l-13.1,9.7c-1,0.7-1.2,2-0.5,3c0.2,0.2,0.4,0.4,0.7,0.6l6.4,4
	c0.4,0.3,1,0.4,1.5,0.3l14.9-2.3c0.7-0.1,1.3-0.5,1.6-1.1l6.9-12.1c0.4-0.8,1.2-1.2,2.1-1.1l2.7,0.3c0.6,0.1,1.2-0.1,1.7-0.5
	l3.2-2.9c0.5-0.4,0.7-1.1,0.7-1.7l-0.9-15.2v-0.4l4.2-29.4c0.1-0.4,0.3-0.8,0.5-1.2l8.2-9.1c0.3-0.3,0.5-0.7,0.5-1.1l3.6-22v-0.9
	l-2.7-11c-0.1-0.5,0-1.1,0.2-1.6l25.5-42.6c0.1-0.3,0.2-0.5,0.3-0.8l4-25.7c0.2-1.1-0.5-2.2-1.6-2.4l0,0c-0.4-0.1-0.8-0.1-1.2,0
	l-11.1,3.5c-0.7,0.2-1.4,0.1-2-0.3l-8.4-6.3c-0.1,0-0.1-0.1-0.2-0.2l-4-3.7c-0.7-0.8-2-0.9-2.8-0.1
	C99.5,191.1,99.3,191.5,99.2,191.8z"/>
	<path id="male_back_down" class="hips" d="M163.1,161.7v-0.4l-0.3-12.7c0-0.6-0.3-1.2-0.8-1.5l-2.5-1.8c-1.5-1.1-3.5-1.1-5-0.1
	l-9.4,6.4c-0.7,0.5-1.7,0.4-2.4-0.2l-7.2-7.1l-7.2,7.1c-0.7,0.6-1.6,0.7-2.4,0.2l-9.4-6.4c-1.5-1-3.5-1-5,0.1l-2.5,1.8
	c-0.5,0.3-0.8,0.9-0.8,1.5l-0.3,12.7v0.4c-0.4,1.8-3.7,16.5-3.7,18.4s1.3,8.7,4,11.4s11.6,5.6,16.3,5.6c5.8,0,11.1-9.6,11.1-9.6
	s5.3,9.6,11.1,9.6c4.7,0,13.6-2.9,16.3-5.6s4-9.3,4-11.4C166.9,178.2,163.5,163.5,163.1,161.7z"/>
	<path id="male_back_back" class="back" d="M169.5,85.5l-4-8.7c-0.6-1.3-2-2.2-3.5-2l-6.3,0.7c-0.6,0.1-1.2,0.3-1.6,0.6l-2.4,1.7
	c-0.5,0.4-0.9,0.8-1.1,1.4l-15.2,33.7l-15.2-33.6c-0.3-0.6-0.7-1-1.2-1.4l-2.4-1.7c-0.5-0.3-1.1-0.6-1.7-0.6l-6.3-0.7
	c-1.5-0.2-2.9,0.7-3.5,2l-4,8.7c-0.2,0.5-0.3,1-0.3,1.5v10.6c0,0.8,0.3,1.5,0.7,2.1l10,13.1c0.4,0.6,0.7,1.2,0.7,1.9l1.1,23.6
	c0.1,1.2,0.7,2.3,1.8,2.9l9.2,4.9c1.3,0.7,2.8,0.5,3.9-0.4l7-6.2l7,6.2c1.1,1,2.6,1.1,3.9,0.4l9.2-4.9c1.1-0.6,1.8-1.7,1.8-2.9
	l1.1-23.6c0-0.7,0.3-1.4,0.7-1.9l10-13.1c0.5-0.6,0.7-1.3,0.7-2.1V87C169.8,86.5,169.7,86,169.5,85.5z"/>
	<path id="male_back_arm-2" class="arms" d="M183.7,84.8c-1.4-0.4-8.7-2.2-9.6-1s-0.7,8.1-0.7,9.6c0,0.2,0.1,0.4,0.2,0.6l18.7,20.6
	c0.1,0.1,0.2,0.2,0.2,0.4l1.8,7.7c0,0.2,0.1,0.3,0.3,0.5l8.2,7.3l0.1,0.1l23.6,14.9l0.1,0.1l5.7,5.1l0.1,0.1l9.7,10.7
	c0.1,0.1,0.2,0.3,0.2,0.5l1.5,13.7c0,0.5,0.4,0.8,0.9,0.8h0.3c0.5,0,0.9-0.4,0.9-0.9l0.1-9c0-0.3,0.2-0.6,0.5-0.8l0.7-0.3
	c0.4-0.2,1,0,1.2,0.4l4,9.6c0.2,0.4,0.7,0.6,1.1,0.5l1.3-0.5c0.4-0.2,0.6-0.7,0.5-1.1l-4-11.1c-0.1-0.4,0-0.8,0.3-1l0,0
	c0.3-0.3,0.8-0.2,1.1,0.1l10.2,9.9c0.3,0.2,0.7,0.3,1,0.2l1.4-0.6c0.4-0.2,0.7-0.7,0.5-1.1c0-0.1-0.1-0.2-0.2-0.3l-10.2-10.7
	c-0.3-0.3-0.3-0.8-0.1-1.1l0.3-0.4c0.3-0.4,0.8-0.5,1.1-0.2c0,0,0,0,0.1,0l11.4,6.8c0.4,0.3,0.9,0.1,1.2-0.2c0,0,0,0,0-0.1l0.3-0.6
	c0.2-0.4,0.1-0.8-0.2-1.1l-14.6-12.7l-0.2-0.2l-4.1-7.1c-0.2-0.3-0.1-0.7,0.1-1c0.8-0.9,1.8-1.6,3-1.8c0.8-0.1,1.1,1,2,0.9
	c3.1-0.3,6.3-0.7,7-1.3c1.1-0.8,2.3-3.4,2.9-4.8c0.2-0.5-0.1-1-0.6-1.2c0,0,0,0,0,0l-1.3-0.3h-0.4l-13.5,3l-10,1.7h-0.4l-2.9-0.8
	c-0.2-0.1-0.3-0.2-0.4-0.3l-26.3-33c-0.1-0.2-0.4-0.3-0.6-0.3l-8.6-1.3c-0.2,0-0.4-0.1-0.5-0.3L184,85.4
	C184,84.9,183.9,84.8,183.7,84.8z"/>
	<path id="male_back_arm-1" class="arms" d="M85.8,85l-16.1,16.7c-0.2,0.1-0.3,0.2-0.5,0.3l-8.6,1.3c-0.2,0-0.4,0.1-0.6,0.3l-26.3,33
	c-0.1,0.1-0.3,0.2-0.4,0.3l-2.9,0.8H30L20,136l-13.5-3H6.1l-1.3,0.3c-0.5,0.1-0.8,0.6-0.6,1.1c0,0,0,0.1,0,0.1
	c0.6,1.4,1.7,4,2.9,4.8c0.8,0.6,4,1,7,1.3c0.9,0.1,1.2-1,2-0.9c1.2,0.2,2.3,0.8,3,1.8c0.3,0.3,0.3,0.7,0.1,1l-4.1,7.1
	c0,0.1-0.1,0.2-0.2,0.2L0.3,162.5c-0.3,0.3-0.4,0.7-0.2,1.1l0.3,0.6c0.2,0.4,0.7,0.6,1.1,0.3c0,0,0,0,0.1,0l11.4-6.8
	c0.4-0.2,0.9-0.1,1.2,0.2l0.3,0.4c0.3,0.3,0.2,0.8-0.1,1.1l-10,11c-0.3,0.3-0.3,0.9,0,1.2c0.1,0.1,0.2,0.1,0.3,0.2l1.4,0.6
	c0.3,0.1,0.7,0,1-0.2l10.2-9.9c0.3-0.3,0.8-0.3,1.1-0.1l0,0c0.3,0.2,0.4,0.6,0.3,1l-4,11.1c-0.1,0.4,0.1,0.9,0.5,1.1l1.3,0.5
	c0.4,0.2,0.9,0,1-0.4c0,0,0-0.1,0.1-0.1l4-9.6c0.1-0.4,0.6-0.6,1-0.5c0.1,0,0.2,0.1,0.2,0.1l0.7,0.3c0.3,0.1,0.5,0.5,0.5,0.8l0.1,9
	c0,0.5,0.4,0.9,0.9,0.9h0.3c0.5,0,0.9-0.3,0.9-0.8l1.5-13.7c0-0.2,0.1-0.4,0.2-0.5l9.7-10.7l0.1-0.1l5.7-5.1l0.1-0.1l23.6-14.9
	l0.1-0.1l8.2-7.3c0.1-0.2,0.2-0.3,0.3-0.5l1.8-7.7c0-0.2,0.1-0.3,0.2-0.4l18.7-20.6c0.1-0.2,0.2-0.4,0.2-0.6
	c0.1-1.6,0.2-8.4-0.7-9.6s-8.2,0.6-9.6,1C86.1,84.8,85.9,84.9,85.8,85z"/>
	<g id="male_back_shoulders" class="shoulders">
		<path class="shoulders" d="M100.7,61.9l-6.3,0.5c-0.8,0.1-1.6,0.5-2.1,1.2l-3.7,5.3c-0.2,0.3-0.4,0.7-0.4,1.1L87,76.3
		c-0.2,1,0.1,2,0.9,2.6l0.3,0.3c0.6,0.6,1.5,0.8,2.4,0.7l4.4-0.7c0.6-0.1,1.2,0,1.7,0.2L98,80c1.4,0.7,3.1,0.1,3.8-1.3
		c0-0.1,0.1-0.1,0.1-0.2l1.6-3.8c0.2-0.4,0.2-0.9,0.2-1.3l-0.4-4.1c0-0.2,0-0.4,0-0.7l0.5-3.6c0.2-1.5-0.9-3-2.4-3.2
		C101.1,61.9,100.9,61.9,100.7,61.9z"/>
		<path class="shoulders" d="M183.3,76.3l-1.2-6.3c-0.1-0.4-0.2-0.8-0.4-1.1l-3.6-5.3c-0.5-0.7-1.3-1.1-2.1-1.2l-6.3-0.5
		c-1.6-0.1-2.9,1.1-3,2.6c0,0.2,0,0.4,0,0.6l0.5,3.6c0,0.2,0,0.4,0,0.7l-0.4,4.1c0,0.5,0,0.9,0.2,1.3l1.6,3.8
		c0.6,1.4,2.3,2.1,3.7,1.5c0,0,0.1,0,0.1-0.1l1.4-0.7c0.5-0.3,1.1-0.3,1.7-0.2l4.4,0.7c0.8,0.1,1.7-0.1,2.4-0.7l0.3-0.3
		C183.2,78.2,183.5,77.2,183.3,76.3z"/>
	</g>
	<path id="male_back_neck" class="neck" d="M163.9,64c-0.2-1.6-1.4-2.8-3-3l-1-0.1c-0.4-0.1-0.8-0.2-1.1-0.3l-11.9-6.2l-0.3-0.1
	l-1.4-0.6c-0.7-0.3-1.3-0.9-1.7-1.7l-3.3-6.6c-0.5-1-1.4-1.7-2.5-1.8l-2.2-0.3l-2.2,0.3c-1.1,0.2-2,0.8-2.5,1.8l-3.3,6.6
	c-0.4,0.7-1,1.3-1.8,1.6l-1.4,0.6l-0.3,0.1l-12,6.2c-0.4,0.2-0.7,0.3-1.1,0.3l-1,0.1c-1.6,0.2-2.8,1.4-3,3l-0.2,3
	c-0.2,1.8,1.1,3.4,2.9,3.7l12.3,1.9c1.2,0.2,2.2,1,2.7,2.1l11,28.8l11-28.8c0.4-1.1,1.4-2,2.6-2.1l12.3-1.9c1.8-0.3,3-1.9,2.9-3.7
	L163.9,64z"/>
	<path id="male_back_head" class="head" d="M149.4,11.8L149.4,11.8c-1-2.7-6.2-12.1-14-11.8c-7.8-0.3-13,9.1-14,11.8l0,0
	c-1.8,8.1-1.9,19.9-1.1,29.4c0.1,1.5,1.4,2.7,2.9,2.6c0.1,0,0.1,0,0.2,0c0.4,0,0.9-0.1,1.3-0.2c0.9-0.1,1.7-0.6,2.2-1.4
	c1.1-2.3,7.4-2.6,8.5-3.5c1.1,0.8,7.4,1.2,8.5,3.5c0.5,0.8,1.3,1.3,2.2,1.4c0.4,0.1,0.9,0.1,1.3,0.2c1.5,0.2,2.9-0.9,3.1-2.4
	c0-0.1,0-0.1,0-0.2C151.3,31.7,151.2,19.9,149.4,11.8z"/>
</svg>
