<svg id="male_front" class="male front hidden" xmlns="http://www.w3.org/2000/svg" x="0px" y="0px" viewBox="2 -8 270 400">
	<path id="male_front_leg-2" class="legs" d="M165.8,173.1c-0.5-1.4-1.7-2.5-3.1-2.8l0,0c-1.6-0.4-3.3,0.1-4.4,1.3l-9.9,11.1
	c-0.3,0.3-0.5,0.6-0.7,1l-6,12.6c-0.3,0.6-0.4,1.2-0.4,1.9v13.9c0,0.3,0,0.7,0.1,1l2.3,10.1c0.1,0.4,0.3,0.8,0.5,1.2l25.9,44.8
	c0.6,1,0.7,2.2,0.5,3.3l-2.4,9.7c-0.1,0.6-0.2,1.2-0.1,1.8l3.4,20.9c0.1,0.8,0.5,1.6,1.1,2.2l7.3,8.1c0.6,0.6,1,1.4,1.1,2.3
	l4.1,28.5c0,0.3,0,0.6,0,0.9l-0.8,13.9c-0.1,1.3,0.5,2.6,1.4,3.5l1.6,1.5c0.9,0.9,2.2,1.3,3.5,1.1h0.2c1.7-0.2,3.4,0.7,4.3,2.2
	l5.7,9.9c0.6,1.2,1.8,2,3.1,2.2l13,2c1,0.2,2.1-0.1,3-0.6l2.9-1.8c2.1-1.3,2.7-4,1.5-6c-0.3-0.5-0.7-0.9-1.2-1.3l-10-7.4
	c-0.5-0.4-1-0.9-1.3-1.5l-8.6-16.9c-0.3-0.5-0.6-0.9-1-1.3l-3-2.7c-0.8-0.7-1.3-1.7-1.5-2.8l-8.1-71.2c0-0.1,0-0.3-0.1-0.4l-15-71.2
	c0-0.2-0.1-0.5-0.2-0.7l-3.1-8.1L165.8,173.1z"/>
	<path id="male_front_leg-1" class="legs" d="M100.3,189.1l-3.1,8.1c-0.1,0.2-0.1,0.5-0.2,0.7L82,269c0,0.1-0.1,0.3-0.1,0.4l-8.1,71.2
	c-0.1,1.1-0.6,2.1-1.5,2.8l-3,2.7c-0.4,0.4-0.8,0.8-1,1.3l-8.6,16.9c-0.3,0.6-0.8,1.1-1.3,1.5l-10,7.4c-2,1.5-2.4,4.3-0.9,6.2
	c0.3,0.4,0.7,0.8,1.2,1.1l2.9,1.8c0.9,0.5,2,0.8,3,0.6l13-2c1.3-0.2,2.5-1,3.1-2.2l5.7-9.9c0.9-1.5,2.6-2.4,4.3-2.2h0.2
	c1.3,0.1,2.5-0.3,3.5-1.1L86,364c1-0.9,1.5-2.2,1.4-3.5l-0.8-13.9v-0.9l4.1-28.5c0.1-0.9,0.5-1.7,1.1-2.3l7.3-8.1
	c0.6-0.6,0.9-1.4,1.1-2.2l3.4-20.9c0.1-0.6,0.1-1.2-0.1-1.8l-2.4-9.7c-0.3-1.1-0.1-2.3,0.5-3.3l25.9-44.8c0.2-0.4,0.4-0.8,0.5-1.2
	l2.3-10.1c0.1-0.3,0.1-0.7,0.1-1V198c0-0.7-0.1-1.3-0.4-1.9l-6-12.6c-0.2-0.4-0.4-0.7-0.7-1l-9.9-11.1c-1.1-1.2-2.8-1.8-4.4-1.3l0,0
	c-1.4,0.4-2.6,1.4-3.1,2.8L100.3,189.1z"/>
	<path id="male_front_belly" class="belly" d="M154.9,124.4l-12.3-8.5c-1.1-0.8-2.4-1.4-3.8-1.7l-2.7-0.7h-0.2l-2.7,0.7
	c-1.4,0.3-2.7,0.9-3.8,1.7l-12.3,8.5c-2.4,1.6-3.7,4.4-3.5,7.3l0.4,5.2c0.2,2.3,1.3,4.4,3.1,5.8l1.6,1.3c0.9,0.8,2,1.3,3.2,1.5
	l14,3.2l14.1-3.2c1.2-0.3,2.2-0.8,3.2-1.5l1.6-1.3c1.8-1.4,2.9-3.5,3.1-5.8l0.4-5.2C158.6,128.8,157.3,126,154.9,124.4z"/>
	<path id="male_front_arm-2" class="arms" d="M175,84.1c-0.7,1-0.7,6.1-0.7,8.6c0,0.9,0.4,1.7,0.9,2.4l17.5,19.3
	c0.4,0.5,0.7,1,0.9,1.6l1.4,6.1c0.2,0.7,0.6,1.4,1.1,1.9l7.6,6.7l23.7,15l5.8,5.2l9.9,11l1.6,14.7h2l0.2-10.4l2-1l4.7,11.3l2.9-1.1
	l-4.5-12.5l1.1-0.8l11.1,10.9l3.1-1.3l-11.6-12.2l1.2-1.6l12.8,7.7l1.1-2l-15.2-13.3l-4.4-7.8c0,0,1.6-2.1,3.4-2.3
	c0.8-0.1,1.1,1,2,0.9c3.1-0.3,6.3-0.7,7-1.3c1.5-1.1,3.2-5.8,3.2-5.8l-2.4-0.6l-13.7,3l-10.2,1.7l-3.3-1l-23.7-29.8
	c-1.9-2.4-4.6-4-7.6-4.4l-3.3-0.5c-0.8-0.1-1.5-0.5-2.1-1.1l-14.9-15.5c-0.5-0.5-1.1-0.8-1.7-1C181.4,84.3,175.8,83.1,175,84.1z"/>
	<path id="male_front_arm-1" class="arms" d="M85.2,85.9l-15.8,16.4l-4.5,0.7c-3,0.5-5.7,2-7.6,4.4l-23.7,29.8l-3.3,1l-10.2-1.7
	l-13.7-3L4,134.1c0,0,1.7,4.6,3.2,5.8c0.8,0.6,4,1,7,1.3c0.9,0.1,1.2-1,2-0.9c1.9,0.1,3.4,2.3,3.4,2.3l-4.4,7.8L0,163.6l1.1,2
	l12.8-7.7l1.2,1.6L3.5,171.6l3.1,1.3L17.7,162l1.1,0.8l-4.5,12.5l2.9,1.1l4.7-11.3l2,1l0.2,10.4h2l1.6-14.7l9.9-11l5.8-5.2l23.7-15
	l8.4-7.5l1.9-8.2l18.1-20c0.6-0.7,0.9-1.5,0.9-2.4c0.1-2.5,0.1-7.5-0.7-8.6s-6.4,0.2-8.8,0.8C86.3,85,85.7,85.5,85.2,85.9z"/>
	<g id="male_front_shoulders" class="shoulders">
		<path class="shoulders" d="M110,62.9l-1.3-0.7c-0.5-0.3-1.1-0.4-1.7-0.4h-3.9c-0.2,0-0.4,0-0.5,0L94.3,63c-1.2,0.2-2.2,0.9-2.7,2l-2.7,5
		c-0.3,0.5-0.4,1.1-0.4,1.7v4.2c0,1.9,1.5,3.5,3.4,3.6l7.9,0.5c1.1,0.1,2.3-0.4,3-1.3l7.5-8.7c0.2-0.3,0.4-0.5,0.6-0.8l0.7-1.5
		C112.4,65.9,111.7,63.8,110,62.9z"/>
		<path class="shoulders" d="M181.3,70l-2.7-5c-0.5-1-1.5-1.7-2.7-1.9l-8.3-1.2c-0.2,0-0.3,0-0.5,0h-3.9c-0.6,0-1.2,0.1-1.7,0.4l-1.3,0.7
		c-1.7,0.9-2.4,3-1.6,4.7l0.7,1.5c0.1,0.3,0.3,0.6,0.5,0.8l7.5,8.7c0.7,0.9,1.9,1.3,3,1.3l7.9-0.5c1.9-0.1,3.4-1.7,3.4-3.6v-4.3
		C181.7,71.1,181.6,70.5,181.3,70z"/>
	</g>
	<path id="male_front_head" class="head" class="st0" d="M150.5,12.1L150.5,12.1c-1-2.7-6.8-12.3-14.6-12.1c-7.8-0.3-13.6,9.4-14.6,12.1l0,0
	c-1.8,9.1-2.5,18.4-2,27.7c0.1,2.8,1.5,5.4,3.7,7.1l1.9,1.5c0.8,0.7,1.8,1.3,2.8,1.7c2.5,1.1,7.3,3.1,8.1,2.4
	c0.9,0.7,5.6-1.3,8.1-2.4c1-0.4,2-1,2.8-1.7l1.9-1.5c2.2-1.7,3.5-4.3,3.7-7.1C153,30.5,152.3,21.2,150.5,12.1z"/>
</svg>
